{
    "asset" : {
        "generator" : "Khronos glTF Blender I/O v1.8.19",
        "version" : "2.0"
    },
    "extensionsUsed" : [
        "KHR_texture_transform"
    ],
    "extensionsRequired" : [
        "KHR_texture_transform"
    ],
    "scene" : 0,
    "scenes" : [
        {
            "name" : "Scene",
            "nodes" : [
                1,
                16
            ]
        }
    ],
    "nodes" : [
        {
            "name" : "Shadow_Plane",
            "translation" : [
                0,
                0,
                -10000
            ]
        },
        {
            "children" : [
                0
            ],
            "name" : "Physical_Sky",
            "rotation" : [
                0.7071068286895752,
                0,
                0,
                0.7071067094802856
            ],
            "scale" : [
                0.009999999776482582,
                0.009999999776482582,
                0.009999999776482582
            ]
        },
        {
            "name" : "Bone.006",
            "rotation" : [
                -0.09704583883285522,
                0.10694639384746552,
                0.07553190737962723,
                0.986630380153656
            ],
            "scale" : [
                0.9999998211860657,
                0.9999998807907104,
                1
            ],
            "translation" : [
                -2.8256090445211157e-07,
                3.135484218597412,
                5.687162456524675e-07
            ]
        },
        {
            "children" : [
                2
            ],
            "name" : "Bone.005",
            "rotation" : [
                0.0983879342675209,
                0.03925934061408043,
                0.08192835748195648,
                0.9909926056861877
            ],
            "scale" : [
                1,
                0.9999999403953552,
                0.9999999403953552
            ],
            "translation" : [
                5.019205673306715e-07,
                4.784623146057129,
                6.023349641282039e-08
            ]
        },
        {
            "children" : [
                3
            ],
            "name" : "Bone.004",
            "rotation" : [
                -0.07958072423934937,
                -0.035748060792684555,
                -0.08713293820619583,
                0.9923692941665649
            ],
            "scale" : [
                0.9999998211860657,
                1,
                0.9999998807907104
            ],
            "translation" : [
                5.632352326756518e-07,
                4.683136463165283,
                6.933485252602622e-08
            ]
        },
        {
            "children" : [
                4
            ],
            "name" : "Bone.003",
            "rotation" : [
                0.01744629442691803,
                -0.008242317475378513,
                0.025642627850174904,
                0.9994849562644958
            ],
            "scale" : [
                1,
                0.9999998807907104,
                1
            ],
            "translation" : [
                -1.2472358434933994e-07,
                3.6277987957000732,
                3.549302363126117e-08
            ]
        },
        {
            "children" : [
                5
            ],
            "name" : "Bone.002",
            "rotation" : [
                -0.025187095627188683,
                -0.03129270300269127,
                -0.3913584351539612,
                0.9193611741065979
            ],
            "scale" : [
                1.0000001192092896,
                0.9999999403953552,
                0.9999999403953552
            ],
            "translation" : [
                -4.318752999665776e-08,
                3.2530174255371094,
                -2.7496788845837727e-08
            ]
        },
        {
            "children" : [
                6
            ],
            "name" : "Bone.001",
            "rotation" : [
                -2.6692541510442425e-08,
                2.6692541510442425e-08,
                0.7071068286895752,
                0.7071068286895752
            ],
            "translation" : [
                0,
                1,
                0
            ]
        },
        {
            "name" : "Bone.012",
            "rotation" : [
                -0.01178183127194643,
                -0.0003537613956723362,
                -0.04843993857502937,
                0.9987565279006958
            ],
            "scale" : [
                1.0000001192092896,
                1.0000001192092896,
                1
            ],
            "translation" : [
                4.6766930950070673e-07,
                5.306028366088867,
                6.857601153598125e-10
            ]
        },
        {
            "children" : [
                8
            ],
            "name" : "Bone.011",
            "rotation" : [
                0.029140720143914223,
                -0.024932270869612694,
                -0.08144905418157578,
                0.9959393739700317
            ],
            "scale" : [
                1.0000001192092896,
                1,
                1
            ],
            "translation" : [
                5.012757924305333e-07,
                4.227233409881592,
                -1.810320497952489e-07
            ]
        },
        {
            "children" : [
                9
            ],
            "name" : "Bone.010",
            "rotation" : [
                0.008863813243806362,
                -0.0009528310620225966,
                -0.039784025400877,
                0.9991685748100281
            ],
            "scale" : [
                1,
                1.0000001192092896,
                1.0000001192092896
            ],
            "translation" : [
                -1.4254388815970742e-06,
                4.332202434539795,
                6.343787717355553e-10
            ]
        },
        {
            "children" : [
                10
            ],
            "name" : "Bone.009",
            "rotation" : [
                -0.021166794002056122,
                0.0013594760093837976,
                0.10267854481935501,
                0.9944884181022644
            ],
            "scale" : [
                0.9999998807907104,
                1,
                0.9999999403953552
            ],
            "translation" : [
                3.239092620788142e-07,
                4.3277177810668945,
                2.775567331525508e-08
            ]
        },
        {
            "children" : [
                11
            ],
            "name" : "Bone.008",
            "rotation" : [
                -0.09814032167196274,
                -2.6519883249420673e-05,
                0.4108775556087494,
                0.9063929319381714
            ],
            "scale" : [
                0.9999999403953552,
                0.9999999403953552,
                0.9999999403953552
            ],
            "translation" : [
                -2.485365939719486e-07,
                4.5131516456604,
                -2.7207448738408857e-08
            ]
        },
        {
            "children" : [
                12
            ],
            "name" : "Bone.007",
            "rotation" : [
                0.03482977673411369,
                -3.788101565760371e-08,
                -0.6743783354759216,
                0.7375640869140625
            ],
            "scale" : [
                0.9999999403953552,
                0.9999999403953552,
                1
            ],
            "translation" : [
                0,
                1,
                0
            ]
        },
        {
            "children" : [
                7,
                13
            ],
            "name" : "Bone"
        },
        {
            "mesh" : 0,
            "name" : "dove_Figur",
            "skin" : 0
        },
        {
            "children" : [
                15,
                14
            ],
            "name" : "Esqueleto",
            "translation" : [
                0,
                2.028200149536133,
                -1.1779032945632935
            ]
        }
    ],
    "animations" : [
        {
            "channels" : [
                {
                    "sampler" : 0,
                    "target" : {
                        "node" : 6,
                        "path" : "translation"
                    }
                },
                {
                    "sampler" : 1,
                    "target" : {
                        "node" : 6,
                        "path" : "rotation"
                    }
                },
                {
                    "sampler" : 2,
                    "target" : {
                        "node" : 6,
                        "path" : "scale"
                    }
                },
                {
                    "sampler" : 3,
                    "target" : {
                        "node" : 3,
                        "path" : "translation"
                    }
                },
                {
                    "sampler" : 4,
                    "target" : {
                        "node" : 3,
                        "path" : "rotation"
                    }
                },
                {
                    "sampler" : 5,
                    "target" : {
                        "node" : 3,
                        "path" : "scale"
                    }
                },
                {
                    "sampler" : 6,
                    "target" : {
                        "node" : 12,
                        "path" : "translation"
                    }
                },
                {
                    "sampler" : 7,
                    "target" : {
                        "node" : 12,
                        "path" : "rotation"
                    }
                },
                {
                    "sampler" : 8,
                    "target" : {
                        "node" : 12,
                        "path" : "scale"
                    }
                },
                {
                    "sampler" : 9,
                    "target" : {
                        "node" : 9,
                        "path" : "translation"
                    }
                },
                {
                    "sampler" : 10,
                    "target" : {
                        "node" : 9,
                        "path" : "rotation"
                    }
                },
                {
                    "sampler" : 11,
                    "target" : {
                        "node" : 9,
                        "path" : "scale"
                    }
                }
            ],
            "name" : "fly",
            "samplers" : [
                {
                    "input" : 7,
                    "interpolation" : "LINEAR",
                    "output" : 8
                },
                {
                    "input" : 9,
                    "interpolation" : "LINEAR",
                    "output" : 10
                },
                {
                    "input" : 7,
                    "interpolation" : "LINEAR",
                    "output" : 11
                },
                {
                    "input" : 7,
                    "interpolation" : "LINEAR",
                    "output" : 12
                },
                {
                    "input" : 7,
                    "interpolation" : "LINEAR",
                    "output" : 13
                },
                {
                    "input" : 7,
                    "interpolation" : "LINEAR",
                    "output" : 14
                },
                {
                    "input" : 7,
                    "interpolation" : "LINEAR",
                    "output" : 15
                },
                {
                    "input" : 9,
                    "interpolation" : "LINEAR",
                    "output" : 16
                },
                {
                    "input" : 7,
                    "interpolation" : "LINEAR",
                    "output" : 17
                },
                {
                    "input" : 7,
                    "interpolation" : "LINEAR",
                    "output" : 18
                },
                {
                    "input" : 7,
                    "interpolation" : "LINEAR",
                    "output" : 19
                },
                {
                    "input" : 7,
                    "interpolation" : "LINEAR",
                    "output" : 20
                }
            ]
        }
    ],
    "materials" : [
        {
            "doubleSided" : true,
            "name" : "Dove.mtl",
            "pbrMetallicRoughness" : {
                "baseColorTexture" : {
                    "extensions" : {
                        "KHR_texture_transform" : {
                            "offset" : [
                                0,
                                -1
                            ]
                        }
                    },
                    "index" : 0
                },
                "metallicFactor" : 0,
                "roughnessFactor" : 0.7403592467308044
            }
        }
    ],
    "meshes" : [
        {
            "name" : "Malla.012",
            "primitives" : [
                {
                    "attributes" : {
                        "POSITION" : 0,
                        "NORMAL" : 1,
                        "TEXCOORD_0" : 2,
                        "JOINTS_0" : 3,
                        "WEIGHTS_0" : 4
                    },
                    "indices" : 5,
                    "material" : 0
                }
            ]
        }
    ],
    "textures" : [
        {
            "sampler" : 0,
            "source" : 0
        }
    ],
    "images" : [
        {
            "bufferView" : 6,
            "mimeType" : "image/png",
            "name" : "dove"
        }
    ],
    "skins" : [
        {
            "inverseBindMatrices" : 6,
            "joints" : [
                14,
                7,
                6,
                5,
                4,
                3,
                2,
                13,
                12,
                11,
                10,
                9,
                8
            ],
            "name" : "Esqueleto"
        }
    ],
    "accessors" : [
        {
            "bufferView" : 0,
            "componentType" : 5126,
            "count" : 3469,
            "max" : [
                41.39724349975586,
                7.8222880363464355,
                11.336400032043457
            ],
            "min" : [
                -41.40115737915039,
                -2.8324978351593018,
                -27.2731990814209
            ],
            "type" : "VEC3"
        },
        {
            "bufferView" : 1,
            "componentType" : 5126,
            "count" : 3469,
            "type" : "VEC3"
        },
        {
            "bufferView" : 2,
            "componentType" : 5126,
            "count" : 3469,
            "type" : "VEC2"
        },
        {
            "bufferView" : 3,
            "componentType" : 5121,
            "count" : 3469,
            "type" : "VEC4"
        },
        {
            "bufferView" : 4,
            "componentType" : 5126,
            "count" : 3469,
            "type" : "VEC4"
        },
        {
            "bufferView" : 5,
            "componentType" : 5123,
            "count" : 21000,
            "type" : "SCALAR"
        },
        {
            "bufferView" : 7,
            "componentType" : 5126,
            "count" : 13,
            "type" : "MAT4"
        },
        {
            "bufferView" : 8,
            "componentType" : 5126,
            "count" : 2,
            "max" : [
                0.6666666666666666
            ],
            "min" : [
                0.03333333333333333
            ],
            "type" : "SCALAR"
        },
        {
            "bufferView" : 9,
            "componentType" : 5126,
            "count" : 2,
            "type" : "VEC3"
        },
        {
            "bufferView" : 10,
            "componentType" : 5126,
            "count" : 20,
            "max" : [
                0.6666666666666666
            ],
            "min" : [
                0.03333333333333333
            ],
            "type" : "SCALAR"
        },
        {
            "bufferView" : 11,
            "componentType" : 5126,
            "count" : 20,
            "type" : "VEC4"
        },
        {
            "bufferView" : 12,
            "componentType" : 5126,
            "count" : 2,
            "type" : "VEC3"
        },
        {
            "bufferView" : 13,
            "componentType" : 5126,
            "count" : 2,
            "type" : "VEC3"
        },
        {
            "bufferView" : 14,
            "componentType" : 5126,
            "count" : 2,
            "type" : "VEC4"
        },
        {
            "bufferView" : 15,
            "componentType" : 5126,
            "count" : 2,
            "type" : "VEC3"
        },
        {
            "bufferView" : 16,
            "componentType" : 5126,
            "count" : 2,
            "type" : "VEC3"
        },
        {
            "bufferView" : 17,
            "componentType" : 5126,
            "count" : 20,
            "type" : "VEC4"
        },
        {
            "bufferView" : 18,
            "componentType" : 5126,
            "count" : 2,
            "type" : "VEC3"
        },
        {
            "bufferView" : 19,
            "componentType" : 5126,
            "count" : 2,
            "type" : "VEC3"
        },
        {
            "bufferView" : 20,
            "componentType" : 5126,
            "count" : 2,
            "type" : "VEC4"
        },
        {
            "bufferView" : 21,
            "componentType" : 5126,
            "count" : 2,
            "type" : "VEC3"
        }
    ],
    "bufferViews" : [
        {
            "buffer" : 0,
            "byteLength" : 41628,
            "byteOffset" : 0
        },
        {
            "buffer" : 0,
            "byteLength" : 41628,
            "byteOffset" : 41628
        },
        {
            "buffer" : 0,
            "byteLength" : 27752,
            "byteOffset" : 83256
        },
        {
            "buffer" : 0,
            "byteLength" : 13876,
            "byteOffset" : 111008
        },
        {
            "buffer" : 0,
            "byteLength" : 55504,
            "byteOffset" : 124884
        },
        {
            "buffer" : 0,
            "byteLength" : 42000,
            "byteOffset" : 180388
        },
        {
            "buffer" : 0,
            "byteLength" : 51005,
            "byteOffset" : 222388
        },
        {
            "buffer" : 0,
            "byteLength" : 832,
            "byteOffset" : 273396
        },
        {
            "buffer" : 0,
            "byteLength" : 8,
            "byteOffset" : 274228
        },
        {
            "buffer" : 0,
            "byteLength" : 24,
            "byteOffset" : 274236
        },
        {
            "buffer" : 0,
            "byteLength" : 80,
            "byteOffset" : 274260
        },
        {
            "buffer" : 0,
            "byteLength" : 320,
            "byteOffset" : 274340
        },
        {
            "buffer" : 0,
            "byteLength" : 24,
            "byteOffset" : 274660
        },
        {
            "buffer" : 0,
            "byteLength" : 24,
            "byteOffset" : 274684
        },
        {
            "buffer" : 0,
            "byteLength" : 32,
            "byteOffset" : 274708
        },
        {
            "buffer" : 0,
            "byteLength" : 24,
            "byteOffset" : 274740
        },
        {
            "buffer" : 0,
            "byteLength" : 24,
            "byteOffset" : 274764
        },
        {
            "buffer" : 0,
            "byteLength" : 320,
            "byteOffset" : 274788
        },
        {
            "buffer" : 0,
            "byteLength" : 24,
            "byteOffset" : 275108
        },
        {
            "buffer" : 0,
            "byteLength" : 24,
            "byteOffset" : 275132
        },
        {
            "buffer" : 0,
            "byteLength" : 32,
            "byteOffset" : 275156
        },
        {
            "buffer" : 0,
            "byteLength" : 24,
            "byteOffset" : 275188
        }
    ],
    "samplers" : [
        {
            "magFilter" : 9729,
            "minFilter" : 9987
        }
    ],
    "buffers" : [
        {
            "byteLength" : 275212,
            "uri" : "data:application/octet-stream;base64,"
        }
    ]
}
